# Blender 4.0.1
# www.blender.org
mtllib mushroom enviroment.mtl
o Circle
v -0.034241 -0.078166 -0.243504
v -0.109315 -0.078166 -0.206135
v -0.140412 -0.078166 -0.115919
v -0.109315 -0.078166 -0.025702
v -0.034241 -0.078166 0.011667
v 0.040834 -0.078166 -0.025702
v 0.071931 -0.078166 -0.115919
v 0.040834 -0.078166 -0.206135
v -0.076723 0.205267 -0.213535
v -0.129297 0.180789 -0.184944
v -0.151074 0.170650 -0.115919
v -0.129297 0.180789 -0.046894
v -0.076723 0.205267 -0.018302
v -0.024150 0.229746 -0.046894
v -0.002373 0.239885 -0.115919
v -0.024150 0.229746 -0.184944
v -0.102504 0.320777 -0.208741
v -0.152640 0.301944 -0.181554
v -0.173407 0.294144 -0.115919
v -0.152640 0.301944 -0.050284
v -0.102504 0.320777 -0.023097
v -0.052369 0.339609 -0.050284
v -0.031602 0.347409 -0.115919
v -0.052369 0.339609 -0.181554
v -0.141817 0.425436 -0.187767
v -0.181413 0.410562 -0.166723
v -0.197815 0.404402 -0.115919
v -0.181413 0.410562 -0.065114
v -0.141817 0.425436 -0.044071
v -0.102221 0.440309 -0.065114
v -0.085819 0.446470 -0.115919
v -0.102221 0.440309 -0.166723
v -0.103174 0.322558 -0.399598
v -0.259512 0.263833 -0.316510
v -0.324270 0.239509 -0.115919
v -0.259512 0.263833 0.084673
v -0.103174 0.322558 0.167760
v 0.053165 0.381283 0.084673
v 0.117923 0.405607 -0.115919
v 0.053165 0.381283 -0.316510
v -0.100159 0.065091 -0.193610
v -0.115250 0.056415 -0.115919
v -0.088185 0.060024 -0.038228
v -0.022845 0.068736 -0.006047
v 0.042495 0.077449 -0.038228
v 0.069560 0.081058 -0.115919
v 0.031678 0.065091 -0.193610
v -0.034241 0.065091 -0.225790
v -0.194685 0.566182 -0.314722
v -0.304247 0.525027 -0.256494
v -0.349630 0.507981 -0.115919
v -0.304247 0.525027 0.024656
v -0.194685 0.566182 0.082884
v -0.085122 0.607336 0.024656
v -0.039740 0.624383 -0.115919
v -0.085122 0.607336 -0.256494
v -0.204884 0.593334 -0.233192
v -0.269515 0.569057 -0.198843
v -0.296285 0.559001 -0.115919
v -0.269515 0.569057 -0.032994
v -0.204884 0.593334 0.001355
v -0.140253 0.617611 -0.032994
v -0.113482 0.627667 -0.115919
v -0.140253 0.617611 -0.198843
v -0.171635 0.504818 -0.430591
v -0.153787 0.457302 -0.497869
v -0.364277 0.378214 -0.385998
v -0.345019 0.439732 -0.338363
v -0.451457 0.345445 -0.115919
v -0.416763 0.412833 -0.115919
v -0.364277 0.378214 0.154161
v -0.345019 0.439732 0.106525
v -0.153787 0.457302 0.266031
v -0.171635 0.504818 0.198754
v 0.056718 0.536350 0.154161
v 0.001722 0.569976 0.106525
v 0.143913 0.569081 -0.115919
v 0.073432 0.596963 -0.115919
v 0.056718 0.536350 -0.385998
v 0.001722 0.569976 -0.338363
v -0.141479 0.424536 -0.534691
v -0.120411 0.368447 -0.520482
v -0.343302 0.284681 -0.401919
v -0.372255 0.337887 -0.412002
v -0.435521 0.249989 -0.115919
v -0.467813 0.302034 -0.115919
v -0.343302 0.284681 0.170081
v -0.372255 0.337887 0.180165
v -0.120411 0.368447 0.288644
v -0.141479 0.424536 0.302854
v 0.102508 0.452139 0.170081
v 0.089273 0.511249 0.180165
v 0.194762 0.486739 -0.115919
v 0.184804 0.547173 -0.115919
v 0.102508 0.452139 -0.401919
v 0.089273 0.511249 -0.412002
vn -0.0000 -1.0000 -0.0000
vn 0.4283 0.1351 0.8935
vn 0.4154 0.1950 -0.8885
vn 0.8610 0.3925 0.3234
vn -0.4366 -0.0884 0.8953
vn -0.9302 -0.2528 -0.2662
vn 0.8464 0.3451 -0.4056
vn 0.3943 0.2290 0.8900
vn -0.9017 -0.2832 0.3267
vn -0.4472 -0.0522 -0.8929
vn 0.8304 0.4563 -0.3198
vn -0.9330 -0.1698 0.3174
vn -0.4554 -0.0638 -0.8880
vn 0.4283 0.1351 -0.8935
vn 0.9142 0.2466 0.3217
vn -0.4554 -0.0638 0.8880
vn -0.9330 -0.1698 -0.3174
vn 0.9142 0.2466 -0.3217
vn -0.1935 -0.9646 -0.1794
vn 0.3576 0.3089 0.8813
vn -0.9255 -0.2032 0.3198
vn -0.4726 -0.0029 -0.8813
vn 0.3576 0.3089 -0.8813
vn 0.8304 0.4563 0.3198
vn -0.4726 -0.0029 0.8813
vn -0.9255 -0.2032 -0.3198
vn 0.0624 0.7559 -0.6517
vn 0.5133 -0.7315 -0.4489
vn 0.7806 -0.5987 0.1794
vn -0.1935 -0.9646 0.1794
vn 0.0952 -0.8885 -0.4489
vn 0.7806 -0.5987 -0.1794
vn 0.5133 -0.7315 0.4489
vn 0.0952 -0.8885 0.4489
vn 0.1483 -0.9174 -0.3694
vn 0.4572 0.8532 -0.2510
vn 0.0624 0.7559 0.6517
vn -0.9059 0.3412 0.2510
vn -0.4398 0.1082 -0.8916
vn 0.4572 0.8532 0.2510
vn -0.5447 0.5279 0.6517
vn -0.8021 0.5660 0.1903
vn 0.2311 0.9541 0.1903
vn -0.5200 0.7077 0.4783
vn -0.0745 0.8750 -0.4783
vn 0.4924 -0.7881 -0.3694
vn 0.2311 0.9541 -0.1903
vn -0.0745 0.8750 0.4783
vn -0.8021 0.5660 -0.1903
vn -0.1728 0.9278 -0.3306
vn 0.7179 -0.6799 -0.1493
vn 0.4924 -0.7881 0.3694
vn -0.0927 -0.9844 0.1493
vn -0.9059 0.3412 -0.2510
vn -0.0927 -0.9844 -0.1493
vn 0.7179 -0.6799 0.1493
vn 0.1483 -0.9174 0.3694
vn -0.3516 0.9361 -0.0000
vn 0.0441 0.9900 0.1343
vn -0.4808 0.8121 0.3306
vn -0.6849 0.7161 -0.1343
vn 0.0441 0.9900 -0.1343
vn -0.1728 0.9278 0.3306
vn -0.6849 0.7161 0.1343
vn -0.4808 0.8121 -0.3306
vn -0.5377 0.6149 -0.5769
vn -0.8662 0.4459 -0.2255
vn -0.8662 0.4459 0.2255
vn -0.5377 0.6149 0.5769
vn -0.0001 0.8168 0.5769
vn 0.3585 0.9059 0.2255
vn 0.3585 0.9059 -0.2255
vn -0.0001 0.8168 -0.5769
vn -0.5200 0.7077 -0.4783
vn -0.3350 -0.3479 -0.8756
vn -0.8051 -0.4992 -0.3202
vn -0.8051 -0.4992 0.3202
vn -0.3350 -0.3479 0.8756
vn 0.4812 -0.0414 0.8756
vn 0.9347 0.1543 0.3202
vn 0.9347 0.1543 -0.3202
vn 0.4812 -0.0414 -0.8756
vn -0.5447 0.5279 -0.6517
vn -0.9318 0.1728 0.3191
vn 0.4392 0.0706 0.8956
vn 0.9221 0.0510 -0.3837
vn -0.9577 0.1299 -0.2567
vn -0.4464 0.1446 0.8831
vn 0.9447 0.0152 0.3276
vn 0.4398 0.1082 -0.8916
vt 0.000000 0.000000
s 0
usemtl stem
f 2/1/1 1/1/1 8/1/1 7/1/1 6/1/1 5/1/1 4/1/1 3/1/1
f 13/1/2 14/1/2 22/1/2 21/1/2
f 47/1/3 48/1/3 9/1/3 16/1/3
f 45/1/4 46/1/4 15/1/4 14/1/4
f 43/1/5 44/1/5 13/1/5 12/1/5
f 41/1/6 42/1/6 11/1/6 10/1/6
f 46/1/7 47/1/7 16/1/7 15/1/7
f 44/1/8 45/1/8 14/1/8 13/1/8
f 42/1/9 43/1/9 12/1/9 11/1/9
f 48/1/10 41/1/10 10/1/10 9/1/10
f 23/1/11 24/1/11 32/1/11 31/1/11
f 11/1/12 12/1/12 20/1/12 19/1/12
f 9/1/13 10/1/13 18/1/13 17/1/13
f 16/1/14 9/1/14 17/1/14 24/1/14
f 14/1/15 15/1/15 23/1/15 22/1/15
f 12/1/16 13/1/16 21/1/16 20/1/16
f 10/1/17 11/1/17 19/1/17 18/1/17
f 15/1/18 16/1/18 24/1/18 23/1/18
f 21/1/20 22/1/20 30/1/20 29/1/20
f 19/1/21 20/1/21 28/1/21 27/1/21
f 17/1/22 18/1/22 26/1/22 25/1/22
f 24/1/23 17/1/23 25/1/23 32/1/23
f 22/1/24 23/1/24 31/1/24 30/1/24
f 20/1/25 21/1/25 29/1/25 28/1/25
f 18/1/26 19/1/26 27/1/26 26/1/26
f 1/1/39 2/1/39 41/1/39 48/1/39
f 3/1/84 4/1/84 43/1/84 42/1/84
f 5/1/85 6/1/85 45/1/85 44/1/85
f 7/1/86 8/1/86 47/1/86 46/1/86
f 2/1/87 3/1/87 42/1/87 41/1/87
f 4/1/88 5/1/88 44/1/88 43/1/88
f 6/1/89 7/1/89 46/1/89 45/1/89
f 8/1/90 1/1/90 48/1/90 47/1/90
usemtl hat
f 30/1/19 31/1/19 39/1/19 38/1/19
f 96/1/27 81/1/27 66/1/27 79/1/27
f 28/1/28 29/1/28 37/1/28 36/1/28
f 26/1/29 27/1/29 35/1/29 34/1/29
f 31/1/30 32/1/30 40/1/30 39/1/30
f 29/1/31 30/1/31 38/1/31 37/1/31
f 27/1/32 28/1/32 36/1/32 35/1/32
f 25/1/33 26/1/33 34/1/33 33/1/33
f 32/1/34 25/1/34 33/1/34 40/1/34
f 33/1/35 34/1/35 83/1/35 82/1/35
f 94/1/36 96/1/36 79/1/36 77/1/36
f 90/1/37 92/1/37 75/1/37 73/1/37
f 86/1/38 88/1/38 71/1/38 69/1/38
f 92/1/40 94/1/40 77/1/40 75/1/40
f 88/1/41 90/1/41 73/1/41 71/1/41
f 70/1/42 72/1/42 52/1/42 51/1/42
f 76/1/43 78/1/43 55/1/43 54/1/43
f 72/1/44 74/1/44 53/1/44 52/1/44
f 80/1/45 65/1/45 49/1/45 56/1/45
f 40/1/46 33/1/46 82/1/46 95/1/46
f 78/1/47 80/1/47 56/1/47 55/1/47
f 74/1/48 76/1/48 54/1/48 53/1/48
f 68/1/49 70/1/49 51/1/49 50/1/49
f 56/1/50 49/1/50 57/1/50 64/1/50
f 39/1/51 40/1/51 95/1/51 93/1/51
f 37/1/52 38/1/52 91/1/52 89/1/52
f 35/1/53 36/1/53 87/1/53 85/1/53
f 84/1/54 86/1/54 69/1/54 67/1/54
f 34/1/55 35/1/55 85/1/55 83/1/55
f 38/1/56 39/1/56 93/1/56 91/1/56
f 36/1/57 37/1/57 89/1/57 87/1/57
f 58/1/58 59/1/58 60/1/58 61/1/58 62/1/58 63/1/58 64/1/58 57/1/58
f 54/1/59 55/1/59 63/1/59 62/1/59
f 52/1/60 53/1/60 61/1/60 60/1/60
f 50/1/61 51/1/61 59/1/61 58/1/61
f 55/1/62 56/1/62 64/1/62 63/1/62
f 53/1/63 54/1/63 62/1/63 61/1/63
f 51/1/64 52/1/64 60/1/64 59/1/64
f 49/1/65 50/1/65 58/1/65 57/1/65
f 68/1/66 65/1/66 66/1/66 67/1/66
f 70/1/67 68/1/67 67/1/67 69/1/67
f 72/1/68 70/1/68 69/1/68 71/1/68
f 74/1/69 72/1/69 71/1/69 73/1/69
f 76/1/70 74/1/70 73/1/70 75/1/70
f 78/1/71 76/1/71 75/1/71 77/1/71
f 80/1/72 78/1/72 77/1/72 79/1/72
f 65/1/73 80/1/73 79/1/73 66/1/73
f 65/1/74 68/1/74 50/1/74 49/1/74
f 84/1/75 81/1/75 82/1/75 83/1/75
f 86/1/76 84/1/76 83/1/76 85/1/76
f 88/1/77 86/1/77 85/1/77 87/1/77
f 90/1/78 88/1/78 87/1/78 89/1/78
f 92/1/79 90/1/79 89/1/79 91/1/79
f 94/1/80 92/1/80 91/1/80 93/1/80
f 96/1/81 94/1/81 93/1/81 95/1/81
f 81/1/82 96/1/82 95/1/82 82/1/82
f 81/1/83 84/1/83 67/1/83 66/1/83
